<svg width="20" height="16" viewBox="0 0 20 16" fill="none" xmlns="http://www.w3.org/2000/svg">
<path d="M8.75 16C8.75 16 7.5 16 7.5 14.6667C7.5 13.3333 8.75 9.33333 13.75 9.33333C18.75 9.33333 20 13.3333 20 14.6667C20 16 18.75 16 18.75 16H8.75ZM13.75 8C14.7446 8 15.6984 7.57857 16.4017 6.82843C17.1049 6.07828 17.5 5.06087 17.5 4C17.5 2.93913 17.1049 1.92172 16.4017 1.17157C15.6984 0.421427 14.7446 0 13.75 0C12.7554 0 11.8016 0.421427 11.0983 1.17157C10.3951 1.92172 10 2.93913 10 4C10 5.06087 10.3951 6.07828 11.0983 6.82843C11.8016 7.57857 12.7554 8 13.75 8ZM6.52 16C6.33478 15.5837 6.24237 15.1274 6.25 14.6667C6.25 12.86 7.1 11 8.67 9.70667C7.88648 9.44858 7.06997 9.32262 6.25 9.33333C1.25 9.33333 0 13.3333 0 14.6667C0 16 1.25 16 1.25 16H6.52ZM5.625 8C6.4538 8 7.24866 7.64881 7.83471 7.02369C8.42076 6.39857 8.75 5.55072 8.75 4.66667C8.75 3.78261 8.42076 2.93477 7.83471 2.30964C7.24866 1.68452 6.4538 1.33333 5.625 1.33333C4.7962 1.33333 4.00134 1.68452 3.41529 2.30964C2.82924 2.93477 2.5 3.78261 2.5 4.66667C2.5 5.55072 2.82924 6.39857 3.41529 7.02369C4.00134 7.64881 4.7962 8 5.625 8Z" fill="#A6A6A6"/>
</svg>
